<mxfile host="app.diagrams.net" modified="2023-01-18T15:13:04.288Z" agent="5.0 (Macintosh; Intel Mac OS X 10_15_7) AppleWebKit/537.36 (KHTML, like Gecko) Chrome/109.0.0.0 Safari/537.36" etag="GtL3i7H8SasNCznfo0Ob" version="20.8.5" type="github">
  <diagram id="tCGXWT_r_tcxS9mnZwyS" name="Page-1">
    <mxGraphModel dx="932" dy="1700" grid="1" gridSize="10" guides="1" tooltips="1" connect="1" arrows="1" fold="1" page="1" pageScale="1" pageWidth="827" pageHeight="1169" math="0" shadow="0">
      <root>
        <mxCell id="0" />
        <mxCell id="1" parent="0" />
        <mxCell id="pUD-tCBiniD4an03szl6-67" value="Elastic Load Balancing" style="sketch=0;outlineConnect=0;gradientColor=none;html=1;whiteSpace=wrap;fontSize=12;fontStyle=0;shape=mxgraph.aws4.groupCenter;grIcon=mxgraph.aws4.group_elastic_load_balancing;grStroke=1;strokeColor=#007DBC;fillColor=none;verticalAlign=top;align=center;fontColor=#007DBC;dashed=0;spacingTop=25;" parent="1" vertex="1">
          <mxGeometry x="340" y="-840" width="140" height="730" as="geometry" />
        </mxCell>
        <mxCell id="nU6l3-WDr7xgm6DIGecr-2" value="VPC" style="points=[[0,0],[0.25,0],[0.5,0],[0.75,0],[1,0],[1,0.25],[1,0.5],[1,0.75],[1,1],[0.75,1],[0.5,1],[0.25,1],[0,1],[0,0.75],[0,0.5],[0,0.25]];outlineConnect=0;gradientColor=none;html=1;whiteSpace=wrap;fontSize=12;fontStyle=0;container=1;pointerEvents=0;collapsible=0;recursiveResize=0;shape=mxgraph.aws4.group;grIcon=mxgraph.aws4.group_vpc;strokeColor=#248814;fillColor=none;verticalAlign=top;align=left;spacingLeft=30;fontColor=#AAB7B8;dashed=0;" parent="1" vertex="1">
          <mxGeometry x="18" y="-874" width="790" height="864" as="geometry" />
        </mxCell>
        <mxCell id="nU6l3-WDr7xgm6DIGecr-8" value="Availability Region - Zone #2 " style="fillColor=none;strokeColor=#147EBA;dashed=1;verticalAlign=top;fontStyle=0;fontColor=#147EBA;" parent="nU6l3-WDr7xgm6DIGecr-2" vertex="1">
          <mxGeometry x="427" y="108" width="340" height="702" as="geometry" />
        </mxCell>
        <mxCell id="nU6l3-WDr7xgm6DIGecr-3" value="Availability Region - Zone #1 " style="fillColor=none;strokeColor=#147EBA;dashed=1;verticalAlign=top;fontStyle=0;fontColor=#147EBA;" parent="nU6l3-WDr7xgm6DIGecr-2" vertex="1">
          <mxGeometry x="20" y="116" width="340" height="684" as="geometry" />
        </mxCell>
        <mxCell id="nU6l3-WDr7xgm6DIGecr-4" value="Private subnet" style="points=[[0,0],[0.25,0],[0.5,0],[0.75,0],[1,0],[1,0.25],[1,0.5],[1,0.75],[1,1],[0.75,1],[0.5,1],[0.25,1],[0,1],[0,0.75],[0,0.5],[0,0.25]];outlineConnect=0;gradientColor=none;html=1;whiteSpace=wrap;fontSize=12;fontStyle=0;container=1;pointerEvents=0;collapsible=0;recursiveResize=0;shape=mxgraph.aws4.group;grIcon=mxgraph.aws4.group_security_group;grStroke=0;strokeColor=#147EBA;fillColor=#E6F2F8;verticalAlign=top;align=left;spacingLeft=30;fontColor=#147EBA;dashed=0;" parent="nU6l3-WDr7xgm6DIGecr-2" vertex="1">
          <mxGeometry x="30" y="340" width="290" height="200" as="geometry" />
        </mxCell>
        <mxCell id="nU6l3-WDr7xgm6DIGecr-5" value="Public subnet" style="points=[[0,0],[0.25,0],[0.5,0],[0.75,0],[1,0],[1,0.25],[1,0.5],[1,0.75],[1,1],[0.75,1],[0.5,1],[0.25,1],[0,1],[0,0.75],[0,0.5],[0,0.25]];outlineConnect=0;gradientColor=none;html=1;whiteSpace=wrap;fontSize=12;fontStyle=0;container=1;pointerEvents=0;collapsible=0;recursiveResize=0;shape=mxgraph.aws4.group;grIcon=mxgraph.aws4.group_security_group;grStroke=0;strokeColor=#248814;fillColor=#E9F3E6;verticalAlign=top;align=left;spacingLeft=30;fontColor=#248814;dashed=0;" parent="nU6l3-WDr7xgm6DIGecr-2" vertex="1">
          <mxGeometry x="30" y="140" width="290" height="174" as="geometry" />
        </mxCell>
        <mxCell id="nU6l3-WDr7xgm6DIGecr-9" value="Public subnet" style="points=[[0,0],[0.25,0],[0.5,0],[0.75,0],[1,0],[1,0.25],[1,0.5],[1,0.75],[1,1],[0.75,1],[0.5,1],[0.25,1],[0,1],[0,0.75],[0,0.5],[0,0.25]];outlineConnect=0;gradientColor=none;html=1;whiteSpace=wrap;fontSize=12;fontStyle=0;container=1;pointerEvents=0;collapsible=0;recursiveResize=0;shape=mxgraph.aws4.group;grIcon=mxgraph.aws4.group_security_group;grStroke=0;strokeColor=#248814;fillColor=#E9F3E6;verticalAlign=top;align=left;spacingLeft=30;fontColor=#248814;dashed=0;" parent="nU6l3-WDr7xgm6DIGecr-2" vertex="1">
          <mxGeometry x="457" y="143" width="300" height="167" as="geometry" />
        </mxCell>
        <mxCell id="nU6l3-WDr7xgm6DIGecr-11" value="Private subnet" style="points=[[0,0],[0.25,0],[0.5,0],[0.75,0],[1,0],[1,0.25],[1,0.5],[1,0.75],[1,1],[0.75,1],[0.5,1],[0.25,1],[0,1],[0,0.75],[0,0.5],[0,0.25]];outlineConnect=0;gradientColor=none;html=1;whiteSpace=wrap;fontSize=12;fontStyle=0;container=1;pointerEvents=0;collapsible=0;recursiveResize=0;shape=mxgraph.aws4.group;grIcon=mxgraph.aws4.group_security_group;grStroke=0;strokeColor=#147EBA;fillColor=#E6F2F8;verticalAlign=top;align=left;spacingLeft=30;fontColor=#147EBA;dashed=0;" parent="nU6l3-WDr7xgm6DIGecr-2" vertex="1">
          <mxGeometry x="465" y="340" width="290" height="200" as="geometry" />
        </mxCell>
        <mxCell id="nU6l3-WDr7xgm6DIGecr-13" value="Private subnet" style="points=[[0,0],[0.25,0],[0.5,0],[0.75,0],[1,0],[1,0.25],[1,0.5],[1,0.75],[1,1],[0.75,1],[0.5,1],[0.25,1],[0,1],[0,0.75],[0,0.5],[0,0.25]];outlineConnect=0;gradientColor=none;html=1;whiteSpace=wrap;fontSize=12;fontStyle=0;container=1;pointerEvents=0;collapsible=0;recursiveResize=0;shape=mxgraph.aws4.group;grIcon=mxgraph.aws4.group_security_group;grStroke=0;strokeColor=#147EBA;fillColor=#E6F2F8;verticalAlign=top;align=left;spacingLeft=30;fontColor=#147EBA;dashed=0;" parent="nU6l3-WDr7xgm6DIGecr-2" vertex="1">
          <mxGeometry x="463" y="566" width="290" height="200" as="geometry" />
        </mxCell>
        <mxCell id="nU6l3-WDr7xgm6DIGecr-30" value="" style="outlineConnect=0;dashed=0;verticalLabelPosition=bottom;verticalAlign=top;align=center;html=1;shape=mxgraph.aws3.rds_db_instance_read_replica;fillColor=#2E73B8;gradientColor=none;" parent="nU6l3-WDr7xgm6DIGecr-13" vertex="1">
          <mxGeometry x="57" y="74" width="49.5" height="66" as="geometry" />
        </mxCell>
        <mxCell id="nU6l3-WDr7xgm6DIGecr-19" value="EC2 instance contents" style="points=[[0,0],[0.25,0],[0.5,0],[0.75,0],[1,0],[1,0.25],[1,0.5],[1,0.75],[1,1],[0.75,1],[0.5,1],[0.25,1],[0,1],[0,0.75],[0,0.5],[0,0.25]];outlineConnect=0;gradientColor=none;html=1;whiteSpace=wrap;fontSize=12;fontStyle=0;container=1;pointerEvents=0;collapsible=0;recursiveResize=0;shape=mxgraph.aws4.group;grIcon=mxgraph.aws4.group_ec2_instance_contents;strokeColor=#D86613;fillColor=none;verticalAlign=top;align=left;spacingLeft=30;fontColor=#D86613;dashed=0;" parent="nU6l3-WDr7xgm6DIGecr-2" vertex="1">
          <mxGeometry x="80" y="389" width="630" height="130" as="geometry" />
        </mxCell>
        <mxCell id="nU6l3-WDr7xgm6DIGecr-25" value="" style="sketch=0;points=[[0,0,0],[0.25,0,0],[0.5,0,0],[0.75,0,0],[1,0,0],[0,1,0],[0.25,1,0],[0.5,1,0],[0.75,1,0],[1,1,0],[0,0.25,0],[0,0.5,0],[0,0.75,0],[1,0.25,0],[1,0.5,0],[1,0.75,0]];outlineConnect=0;fontColor=#232F3E;gradientColor=#F78E04;gradientDirection=north;fillColor=#D05C17;strokeColor=#ffffff;dashed=0;verticalLabelPosition=bottom;verticalAlign=top;align=center;html=1;fontSize=12;fontStyle=0;aspect=fixed;shape=mxgraph.aws4.resourceIcon;resIcon=mxgraph.aws4.ec2;" parent="nU6l3-WDr7xgm6DIGecr-19" vertex="1">
          <mxGeometry x="82" y="39" width="78" height="78" as="geometry" />
        </mxCell>
        <mxCell id="nU6l3-WDr7xgm6DIGecr-26" value="" style="sketch=0;points=[[0,0,0],[0.25,0,0],[0.5,0,0],[0.75,0,0],[1,0,0],[0,1,0],[0.25,1,0],[0.5,1,0],[0.75,1,0],[1,1,0],[0,0.25,0],[0,0.5,0],[0,0.75,0],[1,0.25,0],[1,0.5,0],[1,0.75,0]];outlineConnect=0;fontColor=#232F3E;gradientColor=#F78E04;gradientDirection=north;fillColor=#D05C17;strokeColor=#ffffff;dashed=0;verticalLabelPosition=bottom;verticalAlign=top;align=center;html=1;fontSize=12;fontStyle=0;aspect=fixed;shape=mxgraph.aws4.resourceIcon;resIcon=mxgraph.aws4.ec2;" parent="nU6l3-WDr7xgm6DIGecr-19" vertex="1">
          <mxGeometry x="478" y="39" width="78" height="78" as="geometry" />
        </mxCell>
        <mxCell id="pUD-tCBiniD4an03szl6-63" value="APLICATION LOAD BALANSING" style="text;html=1;strokeColor=none;fillColor=none;align=center;verticalAlign=middle;whiteSpace=wrap;rounded=0;" parent="nU6l3-WDr7xgm6DIGecr-19" vertex="1">
          <mxGeometry x="212.25" y="-25" width="205.5" height="30" as="geometry" />
        </mxCell>
        <mxCell id="nU6l3-WDr7xgm6DIGecr-29" value="" style="outlineConnect=0;dashed=0;verticalLabelPosition=bottom;verticalAlign=top;align=center;html=1;shape=mxgraph.aws3.rds_db_instance;fillColor=#2E73B8;gradientColor=none;" parent="nU6l3-WDr7xgm6DIGecr-2" vertex="1">
          <mxGeometry x="132" y="634" width="49.5" height="66" as="geometry" />
        </mxCell>
        <mxCell id="nU6l3-WDr7xgm6DIGecr-31" value="" style="outlineConnect=0;dashed=0;verticalLabelPosition=bottom;verticalAlign=top;align=center;html=1;shape=mxgraph.aws3.rds_db_instance_standby_multi_az;fillColor=#2E73B8;gradientColor=none;" parent="nU6l3-WDr7xgm6DIGecr-2" vertex="1">
          <mxGeometry x="632" y="644" width="49.5" height="66" as="geometry" />
        </mxCell>
        <mxCell id="pUD-tCBiniD4an03szl6-11" value="READ REPLICA" style="text;html=1;strokeColor=none;fillColor=none;align=center;verticalAlign=middle;whiteSpace=wrap;rounded=0;" parent="nU6l3-WDr7xgm6DIGecr-2" vertex="1">
          <mxGeometry x="489" y="724" width="108" height="30" as="geometry" />
        </mxCell>
        <mxCell id="pUD-tCBiniD4an03szl6-12" value="STAND BY" style="text;html=1;strokeColor=none;fillColor=none;align=center;verticalAlign=middle;whiteSpace=wrap;rounded=0;" parent="nU6l3-WDr7xgm6DIGecr-2" vertex="1">
          <mxGeometry x="612.75" y="724" width="108" height="30" as="geometry" />
        </mxCell>
        <mxCell id="pUD-tCBiniD4an03szl6-19" value="" style="sketch=0;outlineConnect=0;fontColor=#232F3E;gradientColor=none;fillColor=#4D27AA;strokeColor=none;dashed=0;verticalLabelPosition=bottom;verticalAlign=top;align=center;html=1;fontSize=12;fontStyle=0;aspect=fixed;pointerEvents=1;shape=mxgraph.aws4.internet_gateway;" parent="nU6l3-WDr7xgm6DIGecr-2" vertex="1">
          <mxGeometry x="357" y="-73" width="78" height="78" as="geometry" />
        </mxCell>
        <mxCell id="nU6l3-WDr7xgm6DIGecr-23" value="" style="sketch=0;points=[[0,0,0],[0.25,0,0],[0.5,0,0],[0.75,0,0],[1,0,0],[0,1,0],[0.25,1,0],[0.5,1,0],[0.75,1,0],[1,1,0],[0,0.25,0],[0,0.5,0],[0,0.75,0],[1,0.25,0],[1,0.5,0],[1,0.75,0]];outlineConnect=0;fontColor=#232F3E;gradientColor=#F78E04;gradientDirection=north;fillColor=#D05C17;strokeColor=#ffffff;dashed=0;verticalLabelPosition=bottom;verticalAlign=top;align=center;html=1;fontSize=12;fontStyle=0;aspect=fixed;shape=mxgraph.aws4.resourceIcon;resIcon=mxgraph.aws4.auto_scaling2;" parent="nU6l3-WDr7xgm6DIGecr-2" vertex="1">
          <mxGeometry x="369" y="403" width="47" height="47" as="geometry" />
        </mxCell>
        <mxCell id="pUD-tCBiniD4an03szl6-17" value="FRONT END AUTOSCALING GROUP" style="text;html=1;strokeColor=none;fillColor=none;align=center;verticalAlign=middle;whiteSpace=wrap;rounded=0;" parent="nU6l3-WDr7xgm6DIGecr-2" vertex="1">
          <mxGeometry x="321" y="224" width="150" height="30" as="geometry" />
        </mxCell>
        <mxCell id="pUD-tCBiniD4an03szl6-16" value="EC2 AUTOSCALE" style="text;html=1;strokeColor=none;fillColor=none;align=center;verticalAlign=middle;whiteSpace=wrap;rounded=0;" parent="nU6l3-WDr7xgm6DIGecr-2" vertex="1">
          <mxGeometry x="342" y="454" width="108" height="30" as="geometry" />
        </mxCell>
        <mxCell id="pUD-tCBiniD4an03szl6-9" value="Region" style="points=[[0,0],[0.25,0],[0.5,0],[0.75,0],[1,0],[1,0.25],[1,0.5],[1,0.75],[1,1],[0.75,1],[0.5,1],[0.25,1],[0,1],[0,0.75],[0,0.5],[0,0.25]];outlineConnect=0;gradientColor=none;html=1;whiteSpace=wrap;fontSize=12;fontStyle=0;container=1;pointerEvents=0;collapsible=0;recursiveResize=0;shape=mxgraph.aws4.group;grIcon=mxgraph.aws4.group_region;strokeColor=#147EBA;fillColor=none;verticalAlign=top;align=left;spacingLeft=30;fontColor=#147EBA;dashed=1;" parent="1" vertex="1">
          <mxGeometry x="30" y="-850" width="770" height="830" as="geometry" />
        </mxCell>
        <mxCell id="nU6l3-WDr7xgm6DIGecr-7" value="Private subnet" style="points=[[0,0],[0.25,0],[0.5,0],[0.75,0],[1,0],[1,0.25],[1,0.5],[1,0.75],[1,1],[0.75,1],[0.5,1],[0.25,1],[0,1],[0,0.75],[0,0.5],[0,0.25]];outlineConnect=0;gradientColor=none;html=1;whiteSpace=wrap;fontSize=12;fontStyle=0;container=1;pointerEvents=0;collapsible=0;recursiveResize=0;shape=mxgraph.aws4.group;grIcon=mxgraph.aws4.group_security_group;grStroke=0;strokeColor=#147EBA;fillColor=#E6F2F8;verticalAlign=top;align=left;spacingLeft=30;fontColor=#147EBA;dashed=0;" parent="pUD-tCBiniD4an03szl6-9" vertex="1">
          <mxGeometry x="20" y="540" width="290" height="200" as="geometry" />
        </mxCell>
        <mxCell id="pUD-tCBiniD4an03szl6-56" value="EC2 instance contents" style="points=[[0,0],[0.25,0],[0.5,0],[0.75,0],[1,0],[1,0.25],[1,0.5],[1,0.75],[1,1],[0.75,1],[0.5,1],[0.25,1],[0,1],[0,0.75],[0,0.5],[0,0.25]];outlineConnect=0;gradientColor=none;html=1;whiteSpace=wrap;fontSize=12;fontStyle=0;container=1;pointerEvents=0;collapsible=0;recursiveResize=0;shape=mxgraph.aws4.group;grIcon=mxgraph.aws4.group_ec2_instance_contents;strokeColor=#D86613;fillColor=none;verticalAlign=top;align=left;spacingLeft=30;fontColor=#D86613;dashed=0;" parent="pUD-tCBiniD4an03szl6-9" vertex="1">
          <mxGeometry x="60" y="150" width="630" height="130" as="geometry" />
        </mxCell>
        <mxCell id="pUD-tCBiniD4an03szl6-57" value="" style="sketch=0;points=[[0,0,0],[0.25,0,0],[0.5,0,0],[0.75,0,0],[1,0,0],[0,1,0],[0.25,1,0],[0.5,1,0],[0.75,1,0],[1,1,0],[0,0.25,0],[0,0.5,0],[0,0.75,0],[1,0.25,0],[1,0.5,0],[1,0.75,0]];outlineConnect=0;fontColor=#232F3E;gradientColor=#F78E04;gradientDirection=north;fillColor=#D05C17;strokeColor=#ffffff;dashed=0;verticalLabelPosition=bottom;verticalAlign=top;align=center;html=1;fontSize=12;fontStyle=0;aspect=fixed;shape=mxgraph.aws4.resourceIcon;resIcon=mxgraph.aws4.ec2;" parent="pUD-tCBiniD4an03szl6-56" vertex="1">
          <mxGeometry x="82" y="39" width="78" height="78" as="geometry" />
        </mxCell>
        <mxCell id="pUD-tCBiniD4an03szl6-58" value="" style="sketch=0;points=[[0,0,0],[0.25,0,0],[0.5,0,0],[0.75,0,0],[1,0,0],[0,1,0],[0.25,1,0],[0.5,1,0],[0.75,1,0],[1,1,0],[0,0.25,0],[0,0.5,0],[0,0.75,0],[1,0.25,0],[1,0.5,0],[1,0.75,0]];outlineConnect=0;fontColor=#232F3E;gradientColor=#F78E04;gradientDirection=north;fillColor=#D05C17;strokeColor=#ffffff;dashed=0;verticalLabelPosition=bottom;verticalAlign=top;align=center;html=1;fontSize=12;fontStyle=0;aspect=fixed;shape=mxgraph.aws4.resourceIcon;resIcon=mxgraph.aws4.ec2;" parent="pUD-tCBiniD4an03szl6-56" vertex="1">
          <mxGeometry x="478" y="39" width="78" height="78" as="geometry" />
        </mxCell>
        <mxCell id="pUD-tCBiniD4an03szl6-65" value="" style="sketch=0;points=[[0,0,0],[0.25,0,0],[0.5,0,0],[0.75,0,0],[1,0,0],[0,1,0],[0.25,1,0],[0.5,1,0],[0.75,1,0],[1,1,0],[0,0.25,0],[0,0.5,0],[0,0.75,0],[1,0.25,0],[1,0.5,0],[1,0.75,0]];outlineConnect=0;fontColor=#232F3E;gradientColor=#F78E04;gradientDirection=north;fillColor=#D05C17;strokeColor=#ffffff;dashed=0;verticalLabelPosition=bottom;verticalAlign=top;align=center;html=1;fontSize=12;fontStyle=0;aspect=fixed;shape=mxgraph.aws4.resourceIcon;resIcon=mxgraph.aws4.auto_scaling2;" parent="pUD-tCBiniD4an03szl6-56" vertex="1">
          <mxGeometry x="298" y="2" width="47" height="47" as="geometry" />
        </mxCell>
        <mxCell id="pUD-tCBiniD4an03szl6-59" value="INTERNET GATEWAY" style="text;html=1;strokeColor=none;fillColor=none;align=center;verticalAlign=middle;whiteSpace=wrap;rounded=0;" parent="pUD-tCBiniD4an03szl6-9" vertex="1">
          <mxGeometry x="265.5" y="-24" width="239" height="30" as="geometry" />
        </mxCell>
        <mxCell id="pUD-tCBiniD4an03szl6-14" value="RDS AUTOSCALE" style="text;html=1;strokeColor=none;fillColor=none;align=center;verticalAlign=middle;whiteSpace=wrap;rounded=0;" parent="pUD-tCBiniD4an03szl6-9" vertex="1">
          <mxGeometry x="325" y="683" width="108" height="30" as="geometry" />
        </mxCell>
        <mxCell id="pUD-tCBiniD4an03szl6-13" value="MASTER" style="text;html=1;strokeColor=none;fillColor=none;align=center;verticalAlign=middle;whiteSpace=wrap;rounded=0;" parent="pUD-tCBiniD4an03szl6-9" vertex="1">
          <mxGeometry x="90" y="694" width="108" height="30" as="geometry" />
        </mxCell>
        <mxCell id="pUD-tCBiniD4an03szl6-61" value="" style="outlineConnect=0;dashed=0;verticalLabelPosition=bottom;verticalAlign=top;align=center;html=1;shape=mxgraph.aws3.rds_db_instance;fillColor=#2E73B8;gradientColor=none;" parent="pUD-tCBiniD4an03szl6-9" vertex="1">
          <mxGeometry x="121" y="617" width="49.5" height="66" as="geometry" />
        </mxCell>
        <mxCell id="pUD-tCBiniD4an03szl6-64" value="" style="edgeStyle=orthogonalEdgeStyle;rounded=0;orthogonalLoop=1;jettySize=auto;html=1;" parent="pUD-tCBiniD4an03szl6-9" source="pUD-tCBiniD4an03szl6-62" edge="1">
          <mxGeometry relative="1" as="geometry">
            <mxPoint x="379" y="38.629999999999995" as="targetPoint" />
          </mxGeometry>
        </mxCell>
        <mxCell id="pUD-tCBiniD4an03szl6-62" value="APLICATION LOAD BALANSING" style="text;html=1;strokeColor=none;fillColor=none;align=center;verticalAlign=middle;whiteSpace=wrap;rounded=0;" parent="pUD-tCBiniD4an03szl6-9" vertex="1">
          <mxGeometry x="300" y="121" width="155.5" height="30" as="geometry" />
        </mxCell>
        <mxCell id="pUD-tCBiniD4an03szl6-7" value="" style="outlineConnect=0;dashed=0;verticalLabelPosition=bottom;verticalAlign=top;align=center;html=1;shape=mxgraph.aws3.application_load_balancer;fillColor=#F58534;gradientColor=none;" parent="pUD-tCBiniD4an03szl6-9" vertex="1">
          <mxGeometry x="350.5" y="290" width="57" height="57" as="geometry" />
        </mxCell>
        <mxCell id="pUD-tCBiniD4an03szl6-6" value="" style="outlineConnect=0;dashed=0;verticalLabelPosition=bottom;verticalAlign=top;align=center;html=1;shape=mxgraph.aws3.application_load_balancer;fillColor=#F58534;gradientColor=none;" parent="pUD-tCBiniD4an03szl6-9" vertex="1">
          <mxGeometry x="350.5" y="62" width="57" height="57" as="geometry" />
        </mxCell>
        <mxCell id="nU6l3-WDr7xgm6DIGecr-35" value="" style="sketch=0;points=[[0,0,0],[0.25,0,0],[0.5,0,0],[0.75,0,0],[1,0,0],[0,1,0],[0.25,1,0],[0.5,1,0],[0.75,1,0],[1,1,0],[0,0.25,0],[0,0.5,0],[0,0.75,0],[1,0.25,0],[1,0.5,0],[1,0.75,0]];outlineConnect=0;fontColor=#232F3E;gradientColor=#4D72F3;gradientDirection=north;fillColor=#3334B9;strokeColor=#ffffff;dashed=0;verticalLabelPosition=bottom;verticalAlign=top;align=center;html=1;fontSize=12;fontStyle=0;aspect=fixed;shape=mxgraph.aws4.resourceIcon;resIcon=mxgraph.aws4.rds;" parent="pUD-tCBiniD4an03szl6-9" vertex="1">
          <mxGeometry x="327" y="560" width="108" height="108" as="geometry" />
        </mxCell>
        <mxCell id="pUD-tCBiniD4an03szl6-60" style="edgeStyle=orthogonalEdgeStyle;rounded=0;orthogonalLoop=1;jettySize=auto;html=1;exitX=0.5;exitY=1;exitDx=0;exitDy=0;" parent="1" source="nU6l3-WDr7xgm6DIGecr-2" target="nU6l3-WDr7xgm6DIGecr-2" edge="1">
          <mxGeometry relative="1" as="geometry" />
        </mxCell>
        <mxCell id="nU6l3-WDr7xgm6DIGecr-38" value="Auto Scaling group" style="points=[[0,0],[0.25,0],[0.5,0],[0.75,0],[1,0],[1,0.25],[1,0.5],[1,0.75],[1,1],[0.75,1],[0.5,1],[0.25,1],[0,1],[0,0.75],[0,0.5],[0,0.25]];outlineConnect=0;gradientColor=none;html=1;whiteSpace=wrap;fontSize=12;fontStyle=0;container=1;pointerEvents=0;collapsible=0;recursiveResize=0;shape=mxgraph.aws4.groupCenter;grIcon=mxgraph.aws4.group_auto_scaling_group;grStroke=1;strokeColor=#D86613;fillColor=none;verticalAlign=top;align=center;fontColor=#D86613;dashed=1;spacingTop=25;" parent="1" vertex="1">
          <mxGeometry x="48.75" y="100" width="690" height="130" as="geometry" />
        </mxCell>
      </root>
    </mxGraphModel>
  </diagram>
</mxfile>
